<svg width="55" height="30" viewBox="0 0 55 30" fill="none" xmlns="http://www.w3.org/2000/svg">
<path fill-rule="evenodd" clip-rule="evenodd" d="M47.962 7.31312C47.5023 6.88479 46.786 6.89742 46.3417 7.34171C45.8974 7.786 45.8848 8.50233 46.3131 8.96201L51.5398 14.1887L46.3131 19.4153C45.8848 19.875 45.8974 20.5914 46.3417 21.0356C46.786 21.4799 47.5023 21.4926 47.962 21.0642L54.8376 14.1887L53.1887 12.5398L47.962 7.31312Z" fill="white"/>
<path fill-rule="evenodd" clip-rule="evenodd" d="M6.87558 7.31312C7.33526 6.88479 8.05159 6.89742 8.49588 7.34171C8.94016 7.786 8.9528 8.50233 8.52446 8.96201L3.2978 14.1887L8.52446 19.4153C8.9528 19.875 8.94016 20.5914 8.49588 21.0356C8.05159 21.4799 7.33526 21.4926 6.87558 21.0642L1.90735e-05 14.1887L1.64891 12.5398L6.87558 7.31312Z" fill="white"/>
<path d="M27 29L27.5 1.5" stroke="#434343" stroke-linecap="square"/>
</svg>
