<svg width="42" height="21" viewBox="0 0 42 21" fill="none" xmlns="http://www.w3.org/2000/svg">
<path fill-rule="evenodd" clip-rule="evenodd" d="M36.6255 5.20875C36.2745 4.92319 35.7275 4.93162 35.3882 5.22781C35.0489 5.524 35.0393 6.00155 35.3664 6.30801L39.3577 9.79245L35.3664 13.2769C35.0393 13.5834 35.0489 14.0609 35.3882 14.3571C35.7275 14.6533 36.2745 14.6617 36.6255 14.3762L41.876 9.79245L40.6168 8.69319L36.6255 5.20875Z" fill="#666666"/>
<path fill-rule="evenodd" clip-rule="evenodd" d="M5.25043 5.20875C5.60146 4.92319 6.14847 4.93162 6.48775 5.22781C6.82702 5.524 6.83667 6.00155 6.50958 6.30801L2.5183 9.79245L6.50958 13.2769C6.83667 13.5834 6.82702 14.0609 6.48775 14.3571C6.14847 14.6533 5.60146 14.6617 5.25043 14.3762L9.53674e-07 9.79245L1.25915 8.69319L5.25043 5.20875Z" fill="#666666"/>
<path d="M21 20L21.5 1.33929" stroke="#D8D8D8" stroke-linecap="square"/>
</svg>
