<svg width="45" height="45" viewBox="0 0 45 45" fill="none" xmlns="http://www.w3.org/2000/svg">
<circle cx="22.5" cy="22.5" r="22.5" fill="#F0F0F0"/>
<mask id="mask0_12_5" style="mask-type:alpha" maskUnits="userSpaceOnUse" x="13" y="12" width="20" height="20">
<path fill-rule="evenodd" clip-rule="evenodd" d="M13 12.0391H32.9571V31.9999H13V12.0391Z" fill="white"/>
</mask>
<g mask="url(#mask0_12_5)">
<path fill-rule="evenodd" clip-rule="evenodd" d="M31.1088 26.0573C31.0658 27.0322 30.9021 27.5586 30.7656 27.9095C30.4302 28.7791 29.7401 29.4693 28.8705 29.8047C28.5196 29.9412 27.9893 30.1049 27.0183 30.1477C25.9655 30.1946 25.6497 30.2062 22.9864 30.2062C20.3231 30.2062 20.0033 30.1946 18.9543 30.1477C17.9795 30.1049 17.4531 29.9412 17.1021 29.8047C16.6694 29.6448 16.2755 29.3913 15.9558 29.0598C15.6243 28.7362 15.3708 28.3463 15.2109 27.9135C15.0744 27.5625 14.9107 27.0322 14.8679 26.0613C14.821 25.0084 14.8094 24.6926 14.8094 22.0293C14.8094 19.3659 14.821 19.0462 14.8679 17.9973C14.9107 17.0225 15.0744 16.4961 15.2109 16.1452C15.3708 15.7123 15.6243 15.3185 15.9597 14.9986C16.2832 14.6672 16.6732 14.4137 17.1061 14.2539C17.457 14.1175 17.9874 13.9537 18.9583 13.9107C20.0111 13.864 20.327 13.8523 22.9902 13.8523C25.6574 13.8523 25.9732 13.864 27.0223 13.9107C27.9971 13.9537 28.5235 14.1175 28.8744 14.2539C29.3072 14.4137 29.7011 14.6672 30.0208 14.9986C30.3523 15.3223 30.6057 15.7123 30.7656 16.1452C30.9021 16.4961 31.0658 17.0263 31.1088 17.9973C31.1556 19.0502 31.1673 19.3659 31.1673 22.0293C31.1673 24.6926 31.1556 25.0045 31.1088 26.0573ZM32.4424 15.4861C32.1889 14.8154 31.799 14.2149 31.2881 13.7158C30.789 13.2089 30.1846 12.815 29.5216 12.5655C28.8862 12.3198 28.1608 12.1483 27.1002 12.1015C26.0317 12.0508 25.6925 12.0391 22.9824 12.0391C20.2723 12.0391 19.9331 12.0508 18.8685 12.0975C17.808 12.1443 17.0788 12.316 16.4471 12.5615C15.7763 12.815 15.1759 13.2049 14.6767 13.7158C14.1698 14.2149 13.7761 14.8193 13.5264 15.4822C13.2807 16.1179 13.1092 16.843 13.0624 17.9037C13.0117 18.9722 13 19.3114 13 22.0215C13 24.7316 13.0117 25.0707 13.0585 26.1353C13.1053 27.1959 13.2769 27.9251 13.5226 28.5569C13.7761 29.2275 14.1698 29.828 14.6767 30.3272C15.1759 30.8341 15.7803 31.228 16.4432 31.4775C17.0788 31.7232 17.804 31.8947 18.8648 31.9414C19.9292 31.9884 20.2685 31.9999 22.9786 31.9999C25.6887 31.9999 26.0279 31.9884 27.0925 31.9414C28.1531 31.8947 28.8822 31.7232 29.5139 31.4775C30.8554 30.9588 31.916 29.8982 32.4346 28.5569C32.6802 27.9213 32.8518 27.1959 32.8985 26.1353C32.9453 25.0707 32.9571 24.7316 32.9571 22.0215C32.9571 19.3114 32.9531 18.9722 32.9064 17.9076C32.8596 16.847 32.6881 16.1179 32.4424 15.4861Z" fill="#939393"/>
</g>
<path fill-rule="evenodd" clip-rule="evenodd" d="M22.9824 25.3477C21.1459 25.3477 19.6562 23.8581 19.6562 22.0215C19.6562 20.1848 21.1459 18.6953 22.9824 18.6953C24.8191 18.6953 26.3086 20.1848 26.3086 22.0215C26.3086 23.8581 24.8191 25.3477 22.9824 25.3477ZM22.9824 16.8938C20.1515 16.8938 17.8547 19.1905 17.8547 22.0215C17.8547 24.8525 20.1515 27.1492 22.9824 27.1492C25.8135 27.1492 28.1101 24.8525 28.1101 22.0215C28.1101 19.1905 25.8135 16.8938 22.9824 16.8938Z" fill="#939393"/>
<path fill-rule="evenodd" clip-rule="evenodd" d="M29.5101 16.6912C29.5101 17.3523 28.9741 17.8883 28.3128 17.8883C27.6518 17.8883 27.1157 17.3523 27.1157 16.6912C27.1157 16.03 27.6518 15.4941 28.3128 15.4941C28.9741 15.4941 29.5101 16.03 29.5101 16.6912Z" fill="#939393"/>
</svg>
