<svg width="45" height="45" viewBox="0 0 45 45" fill="none" xmlns="http://www.w3.org/2000/svg">
<circle cx="22.5" cy="22.5" r="22.5" fill="#F0F0F0"/>
<mask id="mask0_12_7" style="mask-type:alpha" maskUnits="userSpaceOnUse" x="14" y="15" width="4" height="4">
<path fill-rule="evenodd" clip-rule="evenodd" d="M14 15.0239H17.9788V18.9819H14V15.0239Z" fill="white"/>
</mask>
<g mask="url(#mask0_12_7)">
<path fill-rule="evenodd" clip-rule="evenodd" d="M16.001 15.0239C14.7911 15.0239 14 15.8791 14 17.0031C14 18.1023 14.7675 18.9819 15.9546 18.9819H15.9775C17.2111 18.9819 17.9788 18.1023 17.9788 17.0031C17.9557 15.8791 17.2111 15.0239 16.001 15.0239Z" fill="#939393"/>
</g>
<mask id="mask1_12_7" style="mask-type:alpha" maskUnits="userSpaceOnUse" x="14" y="20" width="17" height="11">
<path fill-rule="evenodd" clip-rule="evenodd" d="M14 31H31V20H14V31Z" fill="white"/>
</mask>
<g mask="url(#mask1_12_7)">
<path fill-rule="evenodd" clip-rule="evenodd" d="M14 31H18V20H14V31Z" fill="#939393"/>
<path fill-rule="evenodd" clip-rule="evenodd" d="M26.8513 20C24.9073 20 23.6037 21.8109 23.6037 21.8109V20.2523H20V31H23.6035V24.998C23.6035 24.6767 23.627 24.3559 23.7222 24.1261C23.9828 23.4845 24.5756 22.8198 25.5712 22.8198C26.8751 22.8198 27.3967 23.8054 27.3967 25.2503V31H31V24.8374C31 21.5362 29.2221 20 26.8513 20Z" fill="#939393"/>
</g>
</svg>
