<svg width="35" height="35" viewBox="0 0 35 35" fill="none" xmlns="http://www.w3.org/2000/svg">
<path fill-rule="evenodd" clip-rule="evenodd" d="M34.6967 15.7266C33.8538 6.96877 26.485 0.290684 17.6867 0.311082C17.1189 0.311082 16.5434 0.311082 15.9756 0.396637C6.90899 1.30658 0.145989 9.16217 0.593891 18.2633C1.04179 27.3644 8.54345 34.518 17.6556 34.5333C18.2234 34.5333 18.7989 34.5333 19.3667 34.4478C28.7693 33.5106 35.6324 25.1294 34.6967 15.7266ZM19.1411 32.1222C18.6226 32.174 18.13 32.1974 17.6634 32.1922C9.77945 32.1976 3.27965 26.013 2.8933 18.1386C2.50695 10.2642 8.37013 3.47307 16.2167 2.70664C16.7352 2.65479 17.2278 2.63145 17.6945 2.63664C25.5784 2.63128 32.0782 8.81579 32.4645 16.6902C32.8509 24.5647 26.9877 31.3558 19.1411 32.1222Z" fill="white"/>
<path fill-rule="evenodd" clip-rule="evenodd" d="M25.06 16.6445H10.2823C9.63793 16.6445 9.1156 17.1669 9.1156 17.8112C9.1156 18.4555 9.63793 18.9779 10.2823 18.9779H25.06C25.7044 18.9779 26.2267 18.4555 26.2267 17.8112C26.2267 17.1669 25.7044 16.6445 25.06 16.6445Z" fill="white"/>
<path fill-rule="evenodd" clip-rule="evenodd" d="M25.06 11.9778H10.2823C9.63793 11.9778 9.1156 12.5001 9.1156 13.1444C9.1156 13.7888 9.63793 14.3111 10.2823 14.3111H25.06C25.7044 14.3111 26.2267 13.7888 26.2267 13.1444C26.2267 12.5001 25.7044 11.9778 25.06 11.9778Z" fill="white"/>
<path fill-rule="evenodd" clip-rule="evenodd" d="M25.06 21.311H10.2823C9.63793 21.311 9.1156 21.8334 9.1156 22.4777C9.1156 23.122 9.63793 23.6444 10.2823 23.6444H25.06C25.7044 23.6444 26.2267 23.122 26.2267 22.4777C26.2267 21.8334 25.7044 21.311 25.06 21.311Z" fill="white"/>
</svg>
