<svg width="25" height="23" viewBox="0 0 25 23" fill="none" xmlns="http://www.w3.org/2000/svg">
<g id="MessageIcon">
<path id="Shape" fill-rule="evenodd" clip-rule="evenodd" d="M19.8444 1.88883C21.6854 1.88883 23.1778 3.38122 23.1778 5.22217V14.1111C23.1778 15.952 21.6854 17.4444 19.8444 17.4444H9.70555L5.95555 20.7777V17.4444H5.39999C3.55905 17.4444 2.06666 15.952 2.06666 14.1111V5.22217C2.06666 3.38122 3.55905 1.88883 5.39999 1.88883H19.8444ZM19.8444 0.222168H5.39999C2.63857 0.222168 0.399995 2.46074 0.399995 5.22217V14.1111C0.398689 16.4454 2.01286 18.4701 4.28888 18.9888V20.7777C4.28802 21.4354 4.67397 22.032 5.27414 22.3009C5.87431 22.5698 6.57648 22.4606 7.06666 22.0222L10.3444 19.1111H19.8444C22.6059 19.1111 24.8444 16.8725 24.8444 14.1111V5.22217C24.8444 2.46074 22.6059 0.222168 19.8444 0.222168Z" fill="white"/>
<circle id="Oval" cx="12.6222" cy="9.66658" r="0.833333" fill="white"/>
<circle id="Oval_2" cx="18.1778" cy="9.66658" r="0.833333" fill="white"/>
<circle id="Oval_3" cx="7.13332" cy="9.66658" r="0.833333" fill="white"/>
</g>
</svg>
