<svg width="25" height="25" viewBox="0 0 25 25" fill="none" xmlns="http://www.w3.org/2000/svg">
<mask id="mask0_0_227" style="mask-type:alpha" maskUnits="userSpaceOnUse" x="0" y="0" width="25" height="25">
<path fill-rule="evenodd" clip-rule="evenodd" d="M0 0H25V25H0V0Z" fill="white"/>
</mask>
<g mask="url(#mask0_0_227)">
<path fill-rule="evenodd" clip-rule="evenodd" d="M6.42743 1.59663C4.86522 1.76909 3.47864 2.58789 2.55788 3.90205C1.52248 5.37979 1.28102 7.19731 1.89548 8.88877C4.30281 15.5157 9.48429 20.6972 16.1113 23.1045C17.8027 23.7189 19.6202 23.4776 21.098 22.4421C22.4122 21.5213 23.231 20.1348 23.4035 18.5726L18.7483 17.5751L16.5602 19.7632C16.3272 19.9961 15.9735 20.058 15.6755 19.9179C11.0278 17.7344 7.26557 13.9723 5.08207 9.32456C4.94207 9.02656 5.00389 8.67275 5.23675 8.43994L7.42495 6.25176L6.42743 1.59663ZM17.9675 25C17.1605 25 16.3604 24.8573 15.5779 24.5731C12.1308 23.3209 8.93126 21.2814 6.32489 18.6751C3.71853 16.0688 1.67907 12.8692 0.426913 9.42222C0.0245179 8.3144 -0.094184 7.1709 0.0740787 6.02329C0.231746 4.94834 0.648154 3.90479 1.27828 3.00542C1.91125 2.1021 2.75505 1.35073 3.71848 0.832666C4.74588 0.280176 5.86728 0 7.05161 0C7.41997 0 7.73833 0.257373 7.81553 0.617529L9.04176 6.33989C9.09727 6.59902 9.01764 6.86865 8.83028 7.05601L6.73496 9.15127C8.71158 13.0811 11.9189 16.2883 15.8487 18.2649L17.944 16.1697C18.1314 15.9823 18.401 15.9028 18.6601 15.9582L24.3825 17.1844C24.7427 17.2616 25 17.5799 25 17.9483C25 19.1326 24.7198 20.2541 24.1673 21.2814C23.6492 22.2449 22.8978 23.0887 21.9945 23.7217C21.0952 24.3518 20.0516 24.7682 18.9766 24.9259C18.6398 24.9753 18.303 25 17.9675 25Z" fill="white"/>
</g>
</svg>
