<svg width="45" height="45" viewBox="0 0 45 45" fill="none" xmlns="http://www.w3.org/2000/svg">
<circle cx="22.5" cy="22.5" r="22.5" fill="#F0F0F0"/>
<mask id="mask0_12_4" style="mask-type:alpha" maskUnits="userSpaceOnUse" x="13" y="15" width="20" height="16">
<path fill-rule="evenodd" clip-rule="evenodd" d="M13 15H32.7249V31H13V15Z" fill="white"/>
</mask>
<g mask="url(#mask0_12_4)">
<path fill-rule="evenodd" clip-rule="evenodd" d="M19.2033 30.9999C26.647 30.9999 30.7177 24.8448 30.7177 19.5075C30.7177 19.3327 30.714 19.1586 30.7062 18.9855C31.4963 18.4153 32.183 17.7037 32.7249 16.8938C31.9998 17.2157 31.2193 17.432 30.4009 17.5299C31.2364 17.0297 31.8778 16.2386 32.1804 15.2957C31.3985 15.7584 30.5325 16.0945 29.6107 16.2761C28.8722 15.491 27.8207 15 26.6565 15C24.4218 15 22.6094 16.8088 22.6094 19.0386C22.6094 19.3557 22.645 19.6639 22.7144 19.9596C19.351 19.7907 16.3683 18.1835 14.3726 15.7395C14.0252 16.3363 13.8247 17.0297 13.8247 17.7697C13.8247 19.1709 14.5392 20.4082 15.6255 21.1318C14.9616 21.1114 14.338 20.9295 13.7927 20.6267C13.7921 20.6437 13.7921 20.6602 13.7921 20.6782C13.7921 22.6344 15.1871 24.2677 17.039 24.6378C16.6989 24.7301 16.341 24.7799 15.9719 24.7799C15.7115 24.7799 15.4578 24.7543 15.2112 24.707C15.7264 26.3119 17.2204 27.4798 18.9917 27.5125C17.6066 28.5961 15.8617 29.2415 13.9654 29.2415C13.6392 29.2415 13.3167 29.2228 13 29.1855C14.791 30.3313 16.9178 31 19.2034 31" fill="#939393"/>
</g>
</svg>
