<svg width="123" height="54" viewBox="0 0 123 54" fill="none" xmlns="http://www.w3.org/2000/svg">
<path d="M5.22262 50.112C4.37328 50.112 3.69195 49.888 3.17862 49.44C2.66528 48.992 2.40862 48.404 2.40862 47.676H4.28462C4.28462 47.928 4.36862 48.1333 4.53662 48.292C4.71395 48.4413 4.94262 48.516 5.22262 48.516H6.48262C7.04262 48.516 7.32262 48.362 7.32262 48.054V47.816C7.32262 47.7227 7.27595 47.6387 7.18262 47.564C7.08928 47.48 6.96328 47.424 6.80462 47.396L4.38262 46.976C3.81328 46.8827 3.36062 46.682 3.02462 46.374C2.69795 46.0567 2.53462 45.688 2.53462 45.268V44.806C2.53462 44.2087 2.77728 43.742 3.26262 43.406C3.75728 43.07 4.44328 42.902 5.32062 42.902H6.41262C7.19662 42.902 7.82662 43.112 8.30262 43.532C8.78795 43.9427 9.03062 44.4887 9.03062 45.17H7.15462C7.15462 44.9647 7.08462 44.8013 6.94462 44.68C6.81395 44.5587 6.63662 44.498 6.41262 44.498H5.34862C4.74195 44.498 4.43862 44.638 4.43862 44.918V45.142C4.43862 45.2447 4.47595 45.3333 4.55062 45.408C4.63462 45.4733 4.75128 45.52 4.90062 45.548L7.44862 46.01C7.98062 46.1033 8.40995 46.304 8.73662 46.612C9.06328 46.9107 9.22662 47.2513 9.22662 47.634V48.138C9.22662 48.7447 8.97462 49.2253 8.47062 49.58C7.97595 49.9347 7.31328 50.112 6.48262 50.112H5.22262ZM13.5152 50.112C12.7872 50.112 12.1992 49.93 11.7512 49.566C11.3032 49.202 11.0792 48.7213 11.0792 48.124V47.606C11.0792 47.018 11.3125 46.5467 11.7792 46.192C12.2459 45.828 12.8619 45.646 13.6272 45.646H14.4812C14.7239 45.646 14.9852 45.6787 15.2652 45.744C15.5452 45.8093 15.8019 45.898 16.0352 46.01V45.282C16.0352 45.0487 15.9559 44.862 15.7972 44.722C15.6479 44.5727 15.4472 44.498 15.1952 44.498H13.9912C13.7299 44.498 13.5199 44.5587 13.3612 44.68C13.2025 44.8013 13.1232 44.9647 13.1232 45.17H11.2752C11.2752 44.4887 11.5225 43.9427 12.0172 43.532C12.5212 43.112 13.1792 42.902 13.9912 42.902H15.1952C16.0165 42.902 16.6792 43.1213 17.1832 43.56C17.6872 43.9893 17.9392 44.5633 17.9392 45.282V50H16.1752V49.16C15.9512 49.4493 15.6759 49.6827 15.3492 49.86C15.0225 50.028 14.7005 50.112 14.3832 50.112H13.5152ZM14.5232 48.656C14.8685 48.656 15.1765 48.5673 15.4472 48.39C15.7179 48.2127 15.9139 47.9747 16.0352 47.676V47.438C15.8859 47.326 15.6759 47.2373 15.4052 47.172C15.1439 47.1067 14.8639 47.074 14.5652 47.074H13.6832C13.4592 47.074 13.2772 47.13 13.1372 47.242C12.9972 47.354 12.9272 47.5033 12.9272 47.69V48.054C12.9272 48.2313 13.0019 48.376 13.1512 48.488C13.3099 48.6 13.5152 48.656 13.7672 48.656H14.5232ZM23.07 52.842C22.314 52.842 21.6887 52.6273 21.194 52.198C20.7087 51.778 20.438 51.2227 20.382 50.532H22.258C22.2767 50.7373 22.3607 50.9007 22.51 51.022C22.6593 51.1527 22.846 51.218 23.07 51.218H24.218C24.5073 51.218 24.7407 51.0967 24.918 50.854C25.1047 50.6207 25.198 50.3127 25.198 49.93V49.02C24.9833 49.3093 24.736 49.538 24.456 49.706C24.1853 49.8647 23.9147 49.944 23.644 49.944H22.72C21.9827 49.944 21.39 49.7013 20.942 49.216C20.494 48.7213 20.27 48.068 20.27 47.256V43.014H22.174V47.284C22.174 47.592 22.2487 47.844 22.398 48.04C22.5567 48.2267 22.762 48.32 23.014 48.32H23.826C24.134 48.32 24.414 48.194 24.666 47.942C24.918 47.6807 25.0953 47.34 25.198 46.92V43.014H27.102V49.93C27.102 50.5087 26.9807 51.0173 26.738 51.456C26.5047 51.8947 26.1687 52.2353 25.73 52.478C25.2913 52.7207 24.7873 52.842 24.218 52.842H23.07ZM30.2402 44.638H29.0362V43.014H30.2402V42.552C30.2402 41.796 30.4782 41.208 30.9542 40.788C31.4395 40.3587 32.1115 40.144 32.9702 40.144H33.9782V41.768H32.9982C32.6995 41.768 32.4802 41.8333 32.3402 41.964C32.2095 42.0947 32.1442 42.3 32.1442 42.58V43.014H33.8242V44.638H32.1442V50H30.2402V44.638ZM37.6187 50.112C36.8907 50.112 36.3027 49.93 35.8547 49.566C35.4067 49.202 35.1827 48.7213 35.1827 48.124V47.606C35.1827 47.018 35.4161 46.5467 35.8827 46.192C36.3494 45.828 36.9654 45.646 37.7307 45.646H38.5847C38.8274 45.646 39.0887 45.6787 39.3687 45.744C39.6487 45.8093 39.9054 45.898 40.1387 46.01V45.282C40.1387 45.0487 40.0594 44.862 39.9007 44.722C39.7514 44.5727 39.5507 44.498 39.2987 44.498H38.0947C37.8334 44.498 37.6234 44.5587 37.4647 44.68C37.3061 44.8013 37.2267 44.9647 37.2267 45.17H35.3787C35.3787 44.4887 35.6261 43.9427 36.1207 43.532C36.6247 43.112 37.2827 42.902 38.0947 42.902H39.2987C40.1201 42.902 40.7827 43.1213 41.2867 43.56C41.7907 43.9893 42.0427 44.5633 42.0427 45.282V50H40.2787V49.16C40.0547 49.4493 39.7794 49.6827 39.4527 49.86C39.1261 50.028 38.8041 50.112 38.4867 50.112H37.6187ZM38.6267 48.656C38.9721 48.656 39.2801 48.5673 39.5507 48.39C39.8214 48.2127 40.0174 47.9747 40.1387 47.676V47.438C39.9894 47.326 39.7794 47.2373 39.5087 47.172C39.2474 47.1067 38.9674 47.074 38.6687 47.074H37.7867C37.5627 47.074 37.3807 47.13 37.2407 47.242C37.1007 47.354 37.0307 47.5033 37.0307 47.69V48.054C37.0307 48.2313 37.1054 48.376 37.2547 48.488C37.4134 48.6 37.6187 48.656 37.8707 48.656H38.6267ZM47.1735 52.842C46.4175 52.842 45.7922 52.6273 45.2975 52.198C44.8122 51.778 44.5415 51.2227 44.4855 50.532H46.3615C46.3802 50.7373 46.4642 50.9007 46.6135 51.022C46.7628 51.1527 46.9495 51.218 47.1735 51.218H48.3215C48.6108 51.218 48.8442 51.0967 49.0215 50.854C49.2082 50.6207 49.3015 50.3127 49.3015 49.93V49.02C49.0868 49.3093 48.8395 49.538 48.5595 49.706C48.2888 49.8647 48.0182 49.944 47.7475 49.944H46.8235C46.0862 49.944 45.4935 49.7013 45.0455 49.216C44.5975 48.7213 44.3735 48.068 44.3735 47.256V43.014H46.2775V47.284C46.2775 47.592 46.3522 47.844 46.5015 48.04C46.6602 48.2267 46.8655 48.32 47.1175 48.32H47.9295C48.2375 48.32 48.5175 48.194 48.7695 47.942C49.0215 47.6807 49.1988 47.34 49.3015 46.92V43.014H51.2055V49.93C51.2055 50.5087 51.0842 51.0173 50.8415 51.456C50.6082 51.8947 50.2722 52.2353 49.8335 52.478C49.3948 52.7207 48.8908 52.842 48.3215 52.842H47.1735ZM53.7837 43.014H55.6877V50H53.7837V43.014ZM68.0043 50L65.8203 47.2L65.0783 47.942V50H63.1743V40.2H65.0783V45.8L67.8363 43.014H70.0483L67.0523 45.982L70.1603 50H68.0043ZM73.7125 50.112C72.9845 50.112 72.3965 49.93 71.9485 49.566C71.5005 49.202 71.2765 48.7213 71.2765 48.124V47.606C71.2765 47.018 71.5098 46.5467 71.9765 46.192C72.4431 45.828 73.0591 45.646 73.8245 45.646H74.6785C74.9211 45.646 75.1825 45.6787 75.4625 45.744C75.7425 45.8093 75.9991 45.898 76.2325 46.01V45.282C76.2325 45.0487 76.1531 44.862 75.9945 44.722C75.8451 44.5727 75.6445 44.498 75.3925 44.498H74.1885C73.9271 44.498 73.7171 44.5587 73.5585 44.68C73.3998 44.8013 73.3205 44.9647 73.3205 45.17H71.4725C71.4725 44.4887 71.7198 43.9427 72.2145 43.532C72.7185 43.112 73.3765 42.902 74.1885 42.902H75.3925C76.2138 42.902 76.8765 43.1213 77.3805 43.56C77.8845 43.9893 78.1365 44.5633 78.1365 45.282V50H76.3725V49.16C76.1485 49.4493 75.8731 49.6827 75.5465 49.86C75.2198 50.028 74.8978 50.112 74.5805 50.112H73.7125ZM74.7205 48.656C75.0658 48.656 75.3738 48.5673 75.6445 48.39C75.9151 48.2127 76.1111 47.9747 76.2325 47.676V47.438C76.0831 47.326 75.8731 47.2373 75.6025 47.172C75.3411 47.1067 75.0611 47.074 74.7625 47.074H73.8805C73.6565 47.074 73.4745 47.13 73.3345 47.242C73.1945 47.354 73.1245 47.5033 73.1245 47.69V48.054C73.1245 48.2313 73.1991 48.376 73.3485 48.488C73.5071 48.6 73.7125 48.656 73.9645 48.656H74.7205ZM83.2673 52.842C82.5113 52.842 81.8859 52.6273 81.3913 52.198C80.9059 51.778 80.6353 51.2227 80.5793 50.532H82.4553C82.4739 50.7373 82.5579 50.9007 82.7073 51.022C82.8566 51.1527 83.0433 51.218 83.2673 51.218H84.4153C84.7046 51.218 84.9379 51.0967 85.1153 50.854C85.3019 50.6207 85.3953 50.3127 85.3953 49.93V49.02C85.1806 49.3093 84.9333 49.538 84.6533 49.706C84.3826 49.8647 84.1119 49.944 83.8413 49.944H82.9173C82.1799 49.944 81.5873 49.7013 81.1393 49.216C80.6913 48.7213 80.4673 48.068 80.4673 47.256V43.014H82.3713V47.284C82.3713 47.592 82.4459 47.844 82.5953 48.04C82.7539 48.2267 82.9593 48.32 83.2113 48.32H84.0233C84.3313 48.32 84.6113 48.194 84.8633 47.942C85.1153 47.6807 85.2926 47.34 85.3953 46.92V43.014H87.2993V49.93C87.2993 50.5087 87.1779 51.0173 86.9353 51.456C86.7019 51.8947 86.3659 52.2353 85.9273 52.478C85.4886 52.7207 84.9846 52.842 84.4153 52.842H83.2673ZM92.2854 50.112C91.4548 50.112 90.7828 49.86 90.2694 49.356C89.7654 48.852 89.5134 48.1893 89.5134 47.368V45.772C89.5134 45.2027 89.6348 44.7033 89.8774 44.274C90.1201 43.8353 90.4608 43.4993 90.8994 43.266C91.3381 43.0233 91.8468 42.902 92.4254 42.902H93.1954C93.4661 42.902 93.7414 42.9627 94.0214 43.084C94.3014 43.196 94.5348 43.35 94.7214 43.546V40.2H96.6254V50H94.8614V49.076C94.6748 49.384 94.4228 49.636 94.1054 49.832C93.7881 50.0187 93.4568 50.112 93.1114 50.112H92.2854ZM93.3214 48.474C93.7041 48.474 94.0214 48.3387 94.2734 48.068C94.5348 47.788 94.6841 47.4193 94.7214 46.962V45.744C94.6561 45.38 94.5114 45.0907 94.2874 44.876C94.0728 44.652 93.8161 44.54 93.5174 44.54H92.6634C92.2901 44.54 91.9868 44.666 91.7534 44.918C91.5294 45.17 91.4174 45.5013 91.4174 45.912V47.228C91.4174 47.6013 91.5201 47.9047 91.7254 48.138C91.9308 48.362 92.1968 48.474 92.5234 48.474H93.3214ZM99.2017 43.014H101.106V50H99.2017V43.014ZM103.684 43.014H105.448V43.91C105.625 43.6393 105.877 43.42 106.204 43.252C106.54 43.0747 106.89 42.986 107.254 42.986H108.206V44.638H107.254C106.759 44.638 106.358 44.7873 106.05 45.086C105.742 45.3847 105.588 45.7673 105.588 46.234V50H103.684V43.014ZM110.002 43.014H111.906V50H110.002V43.014ZM114.485 43.014H116.249V43.854C116.454 43.5647 116.72 43.336 117.047 43.168C117.374 42.9907 117.7 42.902 118.027 42.902H118.867C119.614 42.902 120.211 43.1353 120.659 43.602C121.116 44.0687 121.345 44.6847 121.345 45.45V50H119.441V45.52C119.441 45.2307 119.362 44.9973 119.203 44.82C119.054 44.6427 118.858 44.554 118.615 44.554H117.775C117.448 44.554 117.154 44.6753 116.893 44.918C116.641 45.1513 116.473 45.4593 116.389 45.842V50H114.485V43.014Z" fill="white"/>
<path fill-rule="evenodd" clip-rule="evenodd" d="M62 6C61.3333 6 61 6.5035 61 7.12687V10.8731C61 11.4725 61.3067 12 62 12C62.6933 12 63 11.4965 63 10.8791V7.13287C63 6.5035 62.6667 6 62 6Z" fill="white"/>
<path fill-rule="evenodd" clip-rule="evenodd" d="M62.5964 0H60.4099C55.7682 0.00675855 52.007 3.64853 52 8.14295V18.8509C52.0035 23.3453 55.7618 26.9899 60.4036 27H62.5901C67.2318 26.9932 70.993 23.3515 71 18.857V8.14295C70.993 3.65092 67.2357 0.010135 62.5964 0ZM69.1051 18.857C69.1051 22.3376 66.191 25.1591 62.5964 25.1591H60.4099C56.8153 25.1591 53.9013 22.3376 53.9013 18.857V8.14295C53.9013 4.66483 56.8114 1.8443 60.4036 1.84091H62.5901C66.1847 1.84091 69.0987 4.66243 69.0987 8.14295L69.1051 18.857Z" fill="white"/>
</svg>
