<svg width="45" height="45" viewBox="0 0 45 45" fill="none" xmlns="http://www.w3.org/2000/svg">
<circle cx="22.5" cy="22.5" r="22.5" fill="#F0F0F0"/>
<mask id="mask0_12_6" style="mask-type:alpha" maskUnits="userSpaceOnUse" x="10" y="14" width="26" height="18">
<path fill-rule="evenodd" clip-rule="evenodd" d="M10 14H35.3636V32H10V14Z" fill="white"/>
</mask>
<g mask="url(#mask0_12_6)">
<path fill-rule="evenodd" clip-rule="evenodd" d="M20.1538 26.8541V19.146L26.7558 23L20.1538 26.8541ZM34.841 16.8166C34.5488 15.7152 33.6921 14.847 32.6057 14.5505C30.6208 14 22.6815 14 22.6815 14C22.6815 14 14.7425 14 12.7577 14.5296C11.6922 14.8258 10.8146 15.7154 10.5223 16.8166C10 18.8282 10 23 10 23C10 23 10 27.1929 10.5223 29.1835C10.8149 30.2847 11.6713 31.1528 12.7579 31.4494C14.7634 32 22.6819 32 22.6819 32C22.6819 32 30.6208 32 32.6057 31.4705C33.6922 31.174 34.5488 30.3058 34.8414 29.2046C35.3635 27.1929 35.3635 23.0212 35.3635 23.0212C35.3635 23.0212 35.3844 18.8282 34.841 16.8166Z" fill="#939393"/>
</g>
</svg>
