<svg width="151" height="16" viewBox="0 0 151 16" fill="none" xmlns="http://www.w3.org/2000/svg">
<path fill-rule="evenodd" clip-rule="evenodd" d="M0.780029 1.25757V15.6307H5.06363V10.8827H15.0972V7.46377H5.06363V4.81643H15.7965V1.25757H0.780029Z" fill="#FEFEFE"/>
<mask id="mask0_0_17" style="mask-type:alpha" maskUnits="userSpaceOnUse" x="20" y="0" width="20" height="16">
<path fill-rule="evenodd" clip-rule="evenodd" d="M20.4526 0.630859H39.6294V15.6309H20.4526V0.630859Z" fill="white"/>
</mask>
<g mask="url(#mask0_0_17)">
<path fill-rule="evenodd" clip-rule="evenodd" d="M26.726 0.695983L29.7468 0.630859L33.1461 0.651251C35.6214 0.667697 37.3066 1.09988 38.2033 1.95273C39.1538 2.86248 39.6294 4.59482 39.6294 7.15041V7.85493C39.6294 10.0142 39.4959 11.5551 39.2306 12.4813C38.9235 13.5966 38.312 14.3758 37.3975 14.8165C36.4817 15.2569 35.0255 15.499 33.028 15.5424L28.4799 15.6309C28.1443 15.6309 27.6625 15.6158 27.0331 15.5871C26.362 15.5424 25.8801 15.5207 25.5872 15.5207C22.2065 15.5207 20.5147 13.8913 20.5147 10.6302C20.5147 10.3217 20.5056 9.87045 20.4837 9.27579C20.4627 8.68146 20.4526 8.22988 20.4526 7.92136C20.4526 4.92537 20.8151 2.97266 21.5432 2.06291C22.2143 1.21138 23.9421 0.754528 26.726 0.695983V0.695983ZM24.7532 8.5183C24.7532 9.86319 24.8863 10.7404 25.1533 11.1538C25.5045 11.7008 26.2698 11.9741 27.45 11.9741C27.6884 11.9741 28.0744 11.982 28.6083 11.9955C29.1004 12.0106 29.4786 12.0188 29.7455 12.0188L31.9373 11.9955C33.1717 11.982 33.98 11.8787 34.3597 11.687C34.9763 11.3633 35.3002 10.6562 35.3284 9.56553V7.57862C35.3557 6.16433 35.1705 5.25195 34.7717 4.83851C34.3741 4.42771 33.5097 4.22083 32.1808 4.22083H27.9422C27.0189 4.22083 26.376 4.28628 26.0123 4.4208C25.4383 4.62637 25.0615 5.0477 24.8788 5.68281C24.7958 6.0229 24.7532 6.63499 24.7532 7.52139V8.5183Z" fill="#FEFEFE"/>
</g>
<path fill-rule="evenodd" clip-rule="evenodd" d="M49.2032 11.798H58.8965V15.4768H44.9646V0.783936H49.2032V11.798Z" fill="#FEFEFE"/>
<path fill-rule="evenodd" clip-rule="evenodd" d="M68.8257 6.31314H71.0112L76.7896 0.784912H82.6736L74.6589 8.05272L83.5542 15.4764H77.2937L71.0112 9.90347H68.8257V15.4764H64.5871V0.784912H68.8257V6.31314Z" fill="#FEFEFE"/>
<path fill-rule="evenodd" clip-rule="evenodd" d="M93.0404 12.8118L91.6493 15.4759H86.9158L94.7202 0.784424H100.471L108.109 15.4759H103.398L102.085 12.8118H93.0404ZM97.5289 3.95556L94.535 9.77093H100.552L97.5289 3.95556Z" fill="#FEFEFE"/>
<path fill-rule="evenodd" clip-rule="evenodd" d="M112.078 0.784668H125.108C126.772 0.784668 127.961 1.11522 128.675 1.77599C129.417 2.4805 129.787 3.70041 129.787 5.43275C129.787 6.79836 129.613 7.76666 129.263 8.34027C129.01 8.73594 128.64 9.05991 128.15 9.30889C127.942 9.41217 127.479 9.58879 126.765 9.83777C127.745 9.96966 128.437 10.2117 128.843 10.564C129.36 10.9909 129.619 11.6885 129.619 12.6568V15.4759H125.296V14.0672C125.296 13.1123 125.22 12.5114 125.066 12.2611C124.841 11.8941 124.302 11.7089 123.446 11.7089H116.317V15.4759H112.078V0.784668ZM123.32 8.11843C124.216 8.11843 124.803 8.0043 125.076 7.77176C125.349 7.53923 125.487 6.98042 125.487 6.095C125.487 5.20992 125.255 4.6942 124.792 4.54882C124.413 4.43305 123.958 4.37483 123.424 4.37483H116.317V8.11843H123.32Z" fill="#FEFEFE"/>
<path fill-rule="evenodd" clip-rule="evenodd" d="M134.037 0.783936V4.46274H140.311V15.4768H144.55V4.46274H150.78V0.783936H134.037Z" fill="#FEFEFE"/>
</svg>
